<?xml version="1.0" encoding="UTF-8"?>
<!DOCTYPE svg PUBLIC "-//W3C//DTD SVG 1.1//EN" "http://www.w3.org/Graphics/SVG/1.1/DTD/svg11.dtd">
<!-- Creator: CorelDRAW 2021 (64 Bit) -->
<svg xmlns="http://www.w3.org/2000/svg" xml:space="preserve" width="7.8329mm" height="7.0451mm" version="1.1" style="shape-rendering:geometricPrecision; text-rendering:geometricPrecision; image-rendering:optimizeQuality; fill-rule:evenodd; clip-rule:evenodd"
viewBox="0 0 1.67 1.5"
 xmlns:xlink="http://www.w3.org/1999/xlink"
 xmlns:xodm="http://www.corel.com/coreldraw/odm/2003">
 <defs>
  <style type="text/css">
   <![CDATA[
    .fil0 {fill:#95979A}
   ]]>
  </style>
 </defs>
 <g id="Camada_x0020_1">
  <metadata id="CorelCorpID_0Corel-Layer"/>
  <g id="_2161028334944">
   <path class="fil0" d="M0.25 1.37c-0.04,0 -0.06,-0 -0.09,-0.03 -0.01,-0.01 -0.04,-0.04 -0.04,-0.06 0,-0.04 -0,-0.05 0.02,-0.09 0.01,-0.01 0.02,-0.02 0.03,-0.03 0.02,-0.02 0.05,-0.04 0.08,-0.04 0.04,0 0.06,0 0.09,0.03 0.04,0.04 0.03,0.06 0.03,0.1 0,0.06 -0.07,0.11 -0.12,0.11zm0.48 -0.64c0,-0.04 0.04,-0.04 0.06,-0.02 0.02,0.02 0,0.06 -0.03,0.06 -0.02,0 -0.03,-0.02 -0.03,-0.03zm-0.6 -0.48c0,-0.04 0.01,-0.06 0.03,-0.09 0.01,-0.01 0.02,-0.02 0.03,-0.02 0.05,-0.02 0.1,-0.01 0.14,0.02 0.01,0.01 0.01,0.01 0.01,0.01 0.03,0.03 0.03,0.06 0.03,0.1 0,0.05 -0.05,0.1 -0.11,0.1 -0.05,0 -0.1,-0.04 -0.12,-0.08 -0.01,-0.01 -0.01,-0.03 -0.01,-0.05zm0.44 0.5c-0.01,0.02 -0.02,0.03 -0.04,0.05 -0,0 -0,0.01 -0.01,0.01 -0.01,0.01 -0.01,0.01 -0.02,0.02 -0.01,0.01 -0.02,0.02 -0.03,0.03 -0.03,0.03 -0.06,0.05 -0.1,0.07 -0.01,0 -0.01,0.01 -0.02,0.01 -0.02,0.01 -0.15,0.07 -0.19,0.08 -0.01,0 -0.01,0.01 -0.02,0.01 -0.01,0 -0.02,0.01 -0.03,0.02 -0.07,0.04 -0.11,0.12 -0.11,0.2 0,0.08 0.02,0.13 0.07,0.18 0.01,0.01 0.02,0.02 0.03,0.03 0.01,0.01 0.03,0.02 0.04,0.02 0.04,0.02 0.07,0.02 0.11,0.02 0.02,0 0.04,-0 0.06,-0 0.02,-0 0.03,-0.01 0.05,-0.01 0.04,-0.02 0.08,-0.05 0.1,-0.08l0.02 -0.04c0.04,-0.08 0.03,-0.16 -0.01,-0.24 -0.01,-0.01 -0.02,-0.02 -0.02,-0.03 0.06,-0.03 0.11,-0.06 0.16,-0.1l0.16 -0.1c0.03,-0.02 0.05,-0.04 0.07,-0.05l0.24 -0.18c0.12,-0.09 0.24,-0.17 0.35,-0.26 0.01,-0.01 0.02,-0.02 0.04,-0.03l0.11 -0.08c0.01,-0.01 0.02,-0.02 0.04,-0.03 0.02,-0.02 0.03,-0.02 0.03,-0.04 0,-0.03 -0.04,-0.05 -0.06,-0.06 -0.05,-0.03 -0.07,-0.03 -0.13,-0.03 -0.06,0 -0.12,0.02 -0.17,0.05 -0.01,0.01 -0.01,0.01 -0.02,0.01 -0.04,0.03 -0.07,0.05 -0.11,0.08 -0.01,0.01 -0.01,0.01 -0.02,0.01l-0.36 0.26c-0.05,0.04 -0.04,0.04 -0.08,0.01l-0.22 -0.13c-0.01,-0.01 -0.02,-0.01 -0.04,-0.02 0,-0.01 0.08,-0.08 0.06,-0.21 -0.02,-0.09 -0.1,-0.17 -0.19,-0.19 -0.03,-0.01 -0.07,-0.01 -0.1,-0 -0.01,0 -0.03,0 -0.04,0.01 -0.02,0.01 -0.05,0.02 -0.07,0.03 -0.01,0.01 -0.03,0.02 -0.04,0.03l-0.01 0.01c-0.01,0.01 -0.01,0.02 -0.02,0.03 -0.01,0.01 -0.01,0.02 -0.02,0.03 -0.04,0.1 -0.01,0.22 0.08,0.28 0.03,0.02 0.06,0.04 0.1,0.05l0.14 0.06c0.07,0.03 0.12,0.07 0.17,0.12l0.02 0.03c0.02,0.02 0.03,0.04 0.04,0.06z"/>
   <path class="fil0" d="M0.8 0.95c0.01,0.01 0.1,0.08 0.12,0.09l0.34 0.24c0.06,0.04 0.13,0.08 0.23,0.08 0.04,0 0.08,-0.01 0.11,-0.02 0.02,-0.01 0.07,-0.04 0.07,-0.06 0,-0.03 -0,-0.02 -0.03,-0.05 -0.03,-0.02 -0.09,-0.07 -0.12,-0.09l-0.39 -0.29c-0.01,-0.01 -0.01,-0.01 -0.02,-0.02l-0.06 -0.05c-0.01,-0 -0.01,-0.01 -0.02,-0.01l-0.06 0.04c-0.01,0.01 -0.16,0.12 -0.16,0.12z"/>
  </g>
 </g>
</svg>
