<?xml version="1.0" encoding="UTF-8"?>
<!DOCTYPE svg PUBLIC "-//W3C//DTD SVG 1.1//EN" "http://www.w3.org/Graphics/SVG/1.1/DTD/svg11.dtd">
<!-- Creator: CorelDRAW 2021 (64 Bit) -->
<svg xmlns="http://www.w3.org/2000/svg" xml:space="preserve" width="7.0451mm" height="7.0452mm" version="1.1" style="shape-rendering:geometricPrecision; text-rendering:geometricPrecision; image-rendering:optimizeQuality; fill-rule:evenodd; clip-rule:evenodd"
viewBox="0 0 1.36 1.36"
 xmlns:xlink="http://www.w3.org/1999/xlink"
 xmlns:xodm="http://www.corel.com/coreldraw/odm/2003">
 <defs>
  <style type="text/css">
   <![CDATA[
    .fil0 {fill:#95979A}
   ]]>
  </style>
 </defs>
 <g id="Camada_x0020_1">
  <metadata id="CorelCorpID_0Corel-Layer"/>
  <g id="_2161464787168">
   <path class="fil0" d="M-0 0.62l0 0.11c0.02,0.04 0.01,0.11 0.07,0.24 0.07,0.14 0.17,0.24 0.32,0.31 0.14,0.07 0.2,0.05 0.25,0.07l0.1 0c0.05,-0.02 0.24,-0.01 0.43,-0.2 0.18,-0.18 0.18,-0.37 0.2,-0.43l0 -0.11c-0.02,-0.04 -0.01,-0.11 -0.07,-0.24 -0.03,-0.07 -0.08,-0.14 -0.13,-0.18 -0.18,-0.18 -0.38,-0.18 -0.43,-0.2l-0.1 0c-0.02,0.01 -0.1,0.01 -0.14,0.02 -0.12,0.03 -0.22,0.09 -0.3,0.17 -0.04,0.04 -0.1,0.11 -0.13,0.18 -0.07,0.13 -0.05,0.2 -0.07,0.24zm0.61 -0.51c-0.49,0.07 -0.68,0.66 -0.29,1.01 0.09,0.08 0.27,0.15 0.44,0.12 0.47,-0.07 0.69,-0.65 0.29,-1.01 -0.09,-0.08 -0.26,-0.15 -0.44,-0.12z"/>
   <path class="fil0" d="M0.54 0.29l-0 0.45c-0.03,0.01 -0.08,0.01 -0.11,0.01 -0.06,0 0.02,0.08 0.03,0.09l0.14 0.17c0.09,0.11 0.07,0.11 0.16,0 0.03,-0.03 0.04,-0.05 0.07,-0.09 0.01,-0.02 0.12,-0.13 0.12,-0.16 -0,-0.03 -0.01,-0.02 -0.02,-0.02 -0.03,0 -0.08,0.01 -0.11,-0.01l-0 -0.45c-0.01,-0.03 -0.08,-0.02 -0.13,-0.02l-0.11 0c-0.03,0 -0.02,0 -0.02,0.02z"/>
  </g>
 </g>
</svg>
