<?xml version="1.0" encoding="UTF-8"?>
<!DOCTYPE svg PUBLIC "-//W3C//DTD SVG 1.1//EN" "http://www.w3.org/Graphics/SVG/1.1/DTD/svg11.dtd">
<!-- Creator: CorelDRAW 2021 (64 Bit) -->
<svg xmlns="http://www.w3.org/2000/svg" xml:space="preserve" width="66.118mm" height="66.1495mm" version="1.1" style="shape-rendering:geometricPrecision; text-rendering:geometricPrecision; image-rendering:optimizeQuality; fill-rule:evenodd; clip-rule:evenodd"
viewBox="0 0 362.63 362.8"
 xmlns:xlink="http://www.w3.org/1999/xlink"
 xmlns:xodm="http://www.corel.com/coreldraw/odm/2003">
 <defs>
  <style type="text/css">
   <![CDATA[
    .fil0 {fill:white}
   ]]>
  </style>
 </defs>
 <g id="Camada_x0020_1">
  <metadata id="CorelCorpID_0Corel-Layer"/>
  <path class="fil0" d="M163.56 0.96c-46.29,5.04 -75.87,21.07 -107.66,49.36 -65.17,57.98 -76.7,167.11 -16.84,244.19 7.33,9.44 15.32,15.93 23.04,23.48 28.77,28.13 83.17,49.7 137.3,43.86 36.35,-3.92 67.7,-17.28 94.86,-38.3 42.92,-33.2 74.17,-94.57 67.44,-159.93 -2.61,-25.34 -9.87,-48.4 -20.87,-68.17 -5.74,-10.31 -11.01,-18.71 -17.52,-27.1l-23.02 -23.5c-28.95,-27.94 -82.88,-49.74 -136.74,-43.88zm-7.85 37.8c-20.12,3.55 -37.47,10.72 -52.41,20.33 -65.78,42.3 -88.77,131.2 -44.43,200.22 4.1,6.38 11.14,16.28 15.08,19.73 12.54,10.96 5.23,7.31 19.3,17.39 49.37,35.38 111.43,42.24 165.83,7.32 13.53,-8.68 28.4,-22.29 37.12,-34.39 22.57,-31.31 36.17,-67.24 27.55,-114.75 -3.45,-19 -11.18,-36.96 -20.25,-51.07 -4.09,-6.37 -11.13,-16.3 -15.07,-19.74 -12.51,-10.94 -5.33,-7.39 -19.27,-17.43 -31.09,-22.39 -66.65,-35.88 -113.46,-27.61z"/>
  <path class="fil0" d="M174.37 146.78c-12.56,5.94 -11.31,13.97 -11.24,29.78 0.06,13.55 0.02,27.11 0.02,40.66 0,20.44 -6.16,65.92 25.69,53.39 17.42,-6.85 10.4,-51.07 10.4,-70.8 0,-9.68 1.15,-31.66 -0.42,-39.95 -1.92,-10.13 -12.85,-18.56 -24.45,-13.08z"/>
  <path class="fil0" d="M173.94 92.39c-20.8,9.12 -9,42.64 14.95,33.11 19.35,-7.7 9.17,-43.68 -14.95,-33.11z"/>
 </g>
</svg>
