<?xml version="1.0" encoding="UTF-8"?>
<!DOCTYPE svg PUBLIC "-//W3C//DTD SVG 1.1//EN" "http://www.w3.org/Graphics/SVG/1.1/DTD/svg11.dtd">
<!-- Creator: CorelDRAW 2021 (64 Bit) -->
<svg xmlns="http://www.w3.org/2000/svg" xml:space="preserve" width="9.8088mm" height="5.8239mm" version="1.1" style="shape-rendering:geometricPrecision; text-rendering:geometricPrecision; image-rendering:optimizeQuality; fill-rule:evenodd; clip-rule:evenodd"
viewBox="0 0 2.6 1.54"
 xmlns:xlink="http://www.w3.org/1999/xlink"
 xmlns:xodm="http://www.corel.com/coreldraw/odm/2003">
 <defs>
  <style type="text/css">
   <![CDATA[
    .fil0 {fill:#95979A}
   ]]>
  </style>
 </defs>
 <g id="Camada_x0020_1">
  <metadata id="CorelCorpID_0Corel-Layer"/>
  <g id="_2161339329248">
   <path class="fil0" d="M1.6 1.23l-0.61 0c-0.02,0 -0.04,0.02 -0.05,0.04 -0,0 -0,-0 -0,0.01 -0.01,0 -0.01,0.01 -0.03,0.02l-0.11 0.08 -0.04 0.02c-0,0 -0,0 -0,0l-0.03 0.01c-0.06,0.02 -0.12,0.02 -0.18,0.02 -0.03,-0 -0.06,-0.01 -0.09,-0.02 -0,-0 -0,-0 -0.01,-0 -0,-0 -0,-0 -0,-0l-0.07 -0.03c-0,-0 -0,-0 -0,-0l-0.09 -0.07c-0,-0 -0,-0 -0,-0 -0.01,-0.01 -0.02,-0.02 -0.03,-0.03 -0.01,-0.01 -0.02,-0.02 -0.02,-0.03 -0.01,-0.01 -0,-0 -0.01,-0.01 -0,-0.01 -0.01,-0.01 -0.01,-0.01l-0.08 -0.16c-0,-0 -0,-0 -0,-0l-0 -0.01c-0,-0 -0,-0 -0,-0l-0.02 -0.07c-0,-0 -0,-0 -0,-0.01l-0.01 -0.18c0,-0.02 0,-0.01 0,-0.03 0,-0.01 0,-0.02 0,-0.03l0.03 -0.12c0,-0 0,-0 0,-0l0.05 -0.1c0,-0 0.01,-0.01 0.01,-0.01 0,-0 0,-0 0,-0l0 -0.01c0,-0 0,-0 0,-0 0,-0 0,-0 0,-0.01l0.03 -0.04c0.01,-0.01 -0.01,0.01 0,-0 0.01,-0.01 0.02,-0.03 0.04,-0.03 0,-0 0,-0 0.01,-0.01l0.06 -0.05c0,-0 0,-0 0,-0l0.02 -0.01c0,-0 0,-0 0,-0l0.02 -0.01c0,-0 0.01,-0 0.01,-0l0.01 -0c0,-0 0,-0 0,-0l0.03 -0.01c0.04,-0.02 0.09,-0.03 0.14,-0.03l1.41 0c0.03,0 0.05,0.01 0.08,0.01l0.09 0.03c0,0 0,0 0.01,0 0,0 0,0 0,0l0.08 0.05c0,0 0.01,0 0.01,0.01l0.03 0.02c0.01,0.01 0.01,0.01 0.02,0.02l0.09 0.11c0,0 0,0 0,0 0,0 0,0 0,0 0,0 0,0 0,0l0.02 0.03c0,0 0,0 0,0l0.01 0.03c0,0 0,0 0,0 0,0 0,0 0,0l0.01 0.01c0,0.01 -0,-0 0,0l0.03 0.1c0.01,0.05 0.02,0.16 0.01,0.2l-0.05 0.19 -0.03 0.05c-0.01,0.02 -0.03,0.04 -0.04,0.06 -0,0 -0,0.01 -0.01,0.01l-0.02 0.03c-0,0 -0.01,0.01 -0.01,0.01 -0.01,0.01 -0.01,0.01 -0.01,0.01 -0.01,0.01 -0,0 -0.01,0.01l-0.04 0.03c-0,0 -0,0 -0,0l-0.04 0.03c-0,0 -0,0 -0,0 -0,0 -0,0 -0,0l-0.06 0.03c-0,0 -0.01,0 -0.01,0l-0.03 0.01c-0.04,0.01 -0.07,0.01 -0.11,0.02 -0.03,0 -0.06,0 -0.09,-0 -0.02,-0.01 -0.04,-0.01 -0.06,-0.01l-0.06 -0.02c-0,-0 -0,-0 -0,-0 -0.03,-0.01 -0.05,-0.03 -0.08,-0.05l-0.04 -0.03c-0,-0 -0,-0 -0,-0 -0,-0 -0,-0 -0,-0l-0.05 -0.05c-0.01,-0.01 -0.02,-0.01 -0.03,-0.01zm0.99 -0.45l0 0.15c-0,0.01 -0,0.01 -0,0.01l-0.02 0.08c-0.01,0.04 -0.02,0.07 -0.03,0.11 -0,0.01 -0.01,0.01 -0.01,0.02l-0.01 0.02c-0,0 -0,0 -0,0l-0.03 0.06c-0,0 -0,0 -0,0l-0.14 0.17 -0.09 0.06c-0,0 -0,0 -0,0l-0.05 0.03c-0,0 -0,0 -0,0l-0 0c-0,0 -0,0 -0,0l-0.04 0.01c-0,0 -0,0 -0,0l-0.05 0.01c-0,0 -0,0 -0,0 -0,0 -0,0 -0,0 -0.01,0 -0.03,0 -0.04,0.01 -0,0 -0.01,0 -0.02,0l-0.09 0c-0.01,-0 -0.02,-0 -0.03,-0 -0.01,-0 -0.04,-0 -0.05,-0.01l-0.11 -0.04c-0,-0 -0.01,-0 -0.01,-0 -0.02,-0.01 -0.05,-0.03 -0.07,-0.04l-0.02 -0.01c-0,-0 -0,-0 -0,-0l-0.01 -0c-0,-0 -0,-0 -0.01,-0.01 -0,-0 -0,-0 -0.01,-0.01 -0,-0 0,-0 -0.01,-0.01l-0.01 -0.01c-0.01,-0.01 -0.04,-0.03 -0.05,-0.05 -0,-0.01 -0,-0 -0,-0.01l-0.57 0 -0.01 0.01c-0,0 -0,0 -0,0 -0,0 -0,0 -0,0l-0.04 0.04c-0.01,0.01 -0.02,0.02 -0.03,0.03 -0,0 -0,0 -0,0l-0.02 0.01c-0,0 -0,0 -0,0l-0.07 0.04c-0,0 -0.01,0 -0.01,0.01l-0.05 0.02c-0,0 -0,0 -0,0 -0,0 -0,0 -0,0 -0.01,0 -0,0 -0.01,0 -0,0 -0,0 -0.01,0l-0.02 0.01c-0.02,0.01 -0.03,0 -0.04,0.01 -0.01,0 -0,0 -0.01,0 -0,0 -0.01,0 -0.01,0l-0.1 0c-0.01,-0 -0.02,-0 -0.02,-0 -0.01,-0 -0.02,-0 -0.03,-0l-0.07 -0.02c-0,-0 -0,-0 -0,-0l-0 -0c-0,-0 -0,-0 -0,-0 -0,-0 -0,-0 -0,-0l-0.01 -0c-0,-0 -0,-0 -0,-0l-0.01 -0c-0,-0 -0,-0 -0,-0l-0.12 -0.07c-0,-0 -0,-0 -0.01,-0.01l-0.01 -0.01c-0,-0 -0,-0 -0,-0l-0.01 -0.01c-0,-0 -0,-0 -0.01,-0.01 -0,-0 -0,-0 -0,-0l-0.12 -0.13c-0,-0 -0,-0 -0,-0l-0.03 -0.05c-0,-0 -0,-0.01 -0,-0.01l-0.02 -0.05c-0,-0 -0,-0.01 -0,-0.01 -0,-0 -0,-0 -0,-0 -0.02,-0.05 -0.03,-0.1 -0.05,-0.16 -0,-0.01 -0,-0.03 -0,-0.04 -0,-0 -0,-0 -0,-0 -0.01,-0.02 -0,-0.17 -0,-0.18l0.02 -0.11c0.01,-0.03 0.02,-0.06 0.03,-0.1l0.02 -0.04c0,-0 0,-0 0,-0 0,-0 0,-0 0,-0 0.01,-0.01 -0,0.01 0,-0l0.02 -0.04c0.03,-0.05 0.03,-0.05 0.06,-0.08l0.07 -0.08c0.02,-0.02 0.03,-0.02 0.05,-0.04l0.03 -0.02c0,-0 0,-0 0,-0l0.08 -0.05c0,-0 0,-0 0,-0l0.02 -0.01c0,-0 0,-0 0,-0l0.01 -0.01c0,-0 0,-0 0,-0 0,-0 0,-0 0,-0 0,-0 0,-0 0,-0 0,-0 0,-0 0,-0l0.01 -0c0,-0 0.01,-0 0.01,-0l0.02 -0.01c0.01,-0 0,0 0.01,-0l0.04 -0.01c0.02,-0.01 0.34,-0 0.37,-0l0 -0.01 0.03 -0.08c0.01,-0.02 0.03,-0.04 0.05,-0.06l0.02 -0.01c0,-0 0,-0 0,-0 0,-0 0.01,-0 0.01,-0 0.01,-0 -0.01,-0 0.01,-0l0.55 0 0.03 0.01c0,0 0,0 0,0l0.02 0.01c0,0 0,0 0,0l0 0c0.01,0.01 0.02,0.02 0.03,0.03 0.01,0.02 0.02,0.03 0.03,0.05 0.01,0.03 0.01,0.01 0.01,0.06 0.03,0 0.35,-0.01 0.37,0l0.03 0c0.02,0 -0,0 0.02,0.01 0,0 0.01,-0 0.01,0l0.05 0.02c0,0 0,0 0,0 0,0 0,0 0,0l0.03 0.01c0.03,0.01 0.05,0.02 0.07,0.04l0.02 0.01c0,0 0,0 0,0l0 0c0.01,0 -0,-0 0,0l0.01 0.01c0,0 0,0 0,0 0,0 0,0 0,0l0.04 0.04c0,0 0,0 0,0l0.07 0.07c0,0 0,0 0.01,0.01 0,0.01 0.01,0.01 0.01,0.01l0.05 0.07c0,0 0,0 0,0l0.01 0.03c0,0 0,0 0,0l0.03 0.06c0,0.01 0,0 0,0.01 0,0 0,0 0,0.01 0,0 0,0 0,0l0.01 0.04c0,0 0,0 0,0l0.02 0.09c0,0.02 0.01,0.03 0.01,0.04zm-1.53 -0.66c0.07,0 0.46,-0.01 0.49,0 0.01,0 0.02,0.01 0.03,0.02l0 0.02 -0.59 0c0,-0.01 0,-0.02 0.01,-0.03l0 -0.01c0.01,-0.02 0.03,-0.02 0.05,-0.02z"/>
   <path class="fil0" d="M0.43 0.83c0.02,0 0.1,0 0.12,-0l0.03 -0.02c0.01,-0.01 0.01,-0.01 0.01,-0.02 0,-0.01 0,-0.03 0,-0.04 -0,-0.09 -0.01,-0.08 0.04,-0.08 0,0.05 -0.01,0.12 0.02,0.15 0,0 0.01,0.01 0.01,0.01 0.02,0.01 0.03,0.01 0.05,0.01 0.02,-0 0.05,0 0.07,0l0 0.05c-0.02,0 -0.1,-0 -0.12,0.01l-0.01 0.01c-0,0 -0,0 -0,0 -0,0 -0,0 -0,0.01l-0 0.01c-0.02,0.04 0.01,0.14 -0.02,0.14 -0.04,0 -0.03,0 -0.03,-0.05 0,-0.05 0.01,-0.08 -0.02,-0.11 -0,-0 -0,-0 -0,-0 -0,-0 -0,-0 -0,-0 -0,-0 -0,-0 -0,-0l-0 -0c-0.02,-0.01 -0.1,-0.01 -0.12,-0.01l0 -0.05zm0.04 -0.12c-0.02,0 -0.05,-0 -0.07,0l-0.04 0.03c-0.01,0.01 -0.02,0.02 -0.02,0.03l-0.01 0.01c-0,0.01 -0,0.01 -0,0.01l-0 0.11 0.04 0.07 0.02 0.01c0,0 0,0 0,0 0.03,0.02 0.05,0.01 0.09,0.01 0,0.02 -0,0.04 0,0.06 0,0.02 0,0.03 0.01,0.04 0,0 0,0 0,0l0 0.01c0,0 0,0 0,0 0.01,0.01 0.01,0.02 0.02,0.03l0.05 0.03c0.02,0.01 0.09,0 0.1,-0l0.06 -0.06c0.01,-0.03 0.01,-0.07 0.01,-0.11 0.03,0 0.04,0 0.07,-0.01 0.01,-0 0,-0 0.01,-0l0.01 -0c0,-0 0,-0 0,-0 0,-0 0,-0 0,-0 0.01,-0.01 0.03,-0.02 0.04,-0.04 0,-0 0,-0 0,-0l0 -0c0,-0 0,-0 0,-0l0 -0.01c0,-0 0,-0 0,-0 0,-0 0,-0 0,-0 0.01,-0.02 0.01,-0.1 0,-0.12l-0.01 -0.04c-0,-0 -0,-0 -0,-0l-0.06 -0.05c-0.01,-0 -0.05,-0 -0.07,-0 0,-0.04 0,-0.08 -0.01,-0.11l-0 -0c-0,-0 -0,-0 -0,-0l-0 -0c-0,-0 -0,-0 -0,-0l-0 -0c-0,-0 -0,-0 -0,-0l-0.05 -0.03c-0.01,-0 -0.08,-0 -0.09,0l-0.02 0.01c-0.01,0 -0,-0 -0.01,0l-0.01 0.01c-0.01,0.01 -0.02,0.02 -0.03,0.04 -0.01,0.02 -0,0.03 -0.01,0.05l-0 0c-0.01,0.02 -0,0.04 -0,0.06z"/>
   <path class="fil0" d="M1.69 0.8c0,0.05 -0.01,0.12 0.01,0.15 0,0.01 0.01,0.01 0.01,0.01 0,0 0,0 0,0 0,0 0,0 0,0 0.01,0.01 0,-0 0.01,0.01l0.14 0c0,-0 0,-0.01 0.01,-0.01 0,-0 0,-0 0,-0 0,-0 0,-0 0.01,-0 0,-0.02 0.01,-0.01 0.02,-0.02l0.03 -0.03c0,-0 0,-0.01 0,-0.01l0.01 -0.01c0.01,-0.03 0.01,-0.05 -0.01,-0.07 -0.08,-0.09 -0.05,-0.07 -0.18,-0.07l-0.02 0c-0,0 -0,0 -0,0 -0,0 -0,0 -0,0 -0.02,0.01 -0.03,0.04 -0.03,0.05z"/>
   <path class="fil0" d="M1.9 1l0 0.16c0.01,0.01 0,0.01 0.02,0.02 0.03,0.02 0.1,0.01 0.14,0.01 0.01,0 -0,0 0.01,-0l0.02 -0.02c0,-0 0,-0 0,-0.01l0.01 -0.02c0,-0 0,-0 0,-0 0,-0.01 -0,0.01 0,-0.01 0,-0.03 0,-0.12 -0,-0.13l-0 -0.01c-0.01,-0.03 -0.01,-0.02 -0.03,-0.04 -0.01,-0.01 -0.03,-0.03 -0.04,-0.05 -0.01,-0.01 -0,0 -0.01,-0.01l-0.04 0c-0.01,0.02 -0.01,0 -0.03,0.03 -0,0 0,-0 -0,0.01 -0.01,0.01 -0.04,0.05 -0.05,0.05z"/>
   <path class="fil0" d="M1.9 0.55l0 0.16c0.01,0.01 0.04,0.05 0.06,0.07 0,0 0,0 0,0l0.01 0.01c0,0.01 0,0 0,0.01l0.04 0c0,-0.01 0,-0 0.01,-0.01l0 -0c0.01,-0 0.01,-0.01 0.01,-0.01l0.02 -0.03c0.01,-0.02 0.03,-0.04 0.03,-0.06 0,-0.01 0.01,-0.12 -0.01,-0.14 -0,-0.01 -0,-0 -0,-0.01 -0,-0.01 -0,-0 -0.01,-0.01l-0.01 -0.01c-0.02,-0.01 -0.13,-0.01 -0.15,0 -0.01,0 -0.01,0.01 -0.01,0.01 -0.01,0.02 -0,0.01 -0.01,0.01z"/>
   <path class="fil0" d="M2.3 0.91l0 -0.1c0,-0.02 -0,0 -0,-0.01 -0.01,-0.02 0,-0.02 -0.02,-0.05 -0.02,-0.02 -0.08,-0.01 -0.12,-0.01 -0.02,-0 -0.01,-0 -0.02,0 -0.02,0.01 -0.03,0.03 -0.05,0.05l-0.01 0.01c-0.01,0.01 -0.02,0.02 -0.03,0.04l0.01 0.05c0.01,0.02 0.01,0.02 0.02,0.02l0.06 0.06c0.01,0 0.11,0 0.12,-0 0,-0 0,-0 0,-0l0.01 -0.01c0.01,-0.01 0.02,-0.02 0.02,-0.03 0,-0.01 0,-0.01 0,-0.01 0,-0.01 0,0 0,-0.01z"/>
   <path class="fil0" d="M1.05 0.84c0,0.03 -0,0.03 0,0.05l0.01 0.02c0,0 0,0 0,0l0.03 0.03c0,0 0,0 0,0l0.02 0.01c0.02,0.01 0,0.01 0.06,0.01 0.01,0 -0,0 0.01,-0.01 0.02,-0.01 0.04,-0.02 0.05,-0.04 0,-0 0,-0 0,-0 0,-0 0,-0 0,-0l0.01 -0.03c0,-0.01 0,-0.02 0,-0.02 -0,-0.04 0,-0.03 -0.01,-0.07l-0.02 -0.03c-0.03,-0.03 -0.07,-0.04 -0.11,-0.02l-0.02 0.01c-0.01,0.01 -0.01,0.01 -0.02,0.02l-0.01 0.02c-0,0 -0,0 -0,0 -0,0.01 -0.01,0.02 -0.01,0.03z"/>
   <path class="fil0" d="M1.42 0.74c-0,0 -0,-0 -0,0l-0.02 0.01c-0,0 -0.01,0.01 -0.03,0.02 -0,0 -0,0 -0.01,0.01l-0.02 0.04c-0,0.01 -0,0.01 -0,0.01 -0,0.01 -0.01,0.02 -0,0.04 0,0 0,0 0,0.01 0,0 0,0 0,0l0.01 0.03c0,0 0,0 0,0 0,0 0,0.01 0,0.01l0.03 0.03c0,0 0,0 0,0l0.03 0.01c0.02,0.01 0.04,0.01 0.06,-0l0.02 -0.01c0,-0 0,-0 0,-0 0,-0 0,-0 0,-0l0.01 -0.01c0.01,-0.01 0.02,-0.02 0.03,-0.03l0 -0.01c0.01,-0.02 0,-0.01 0.01,-0.03l0 -0.01c0.01,-0.02 0,-0.04 -0.01,-0.05l-0.04 -0.06c-0.01,-0.01 -0.01,-0.01 -0.03,-0.01 -0.01,-0.01 -0.05,-0.01 -0.06,-0z"/>
  </g>
 </g>
</svg>
