<?xml version="1.0" encoding="UTF-8"?>
<!DOCTYPE svg PUBLIC "-//W3C//DTD SVG 1.1//EN" "http://www.w3.org/Graphics/SVG/1.1/DTD/svg11.dtd">
<!-- Creator: CorelDRAW 2021 (64 Bit) -->
<svg xmlns="http://www.w3.org/2000/svg" xml:space="preserve" width="7.0454mm" height="7.2237mm" version="1.1" style="shape-rendering:geometricPrecision; text-rendering:geometricPrecision; image-rendering:optimizeQuality; fill-rule:evenodd; clip-rule:evenodd"
viewBox="0 0 1.37 1.41"
 xmlns:xlink="http://www.w3.org/1999/xlink"
 xmlns:xodm="http://www.corel.com/coreldraw/odm/2003">
 <defs>
  <style type="text/css">
   <![CDATA[
    .fil1 {fill:#96989A}
    .fil0 {fill:url(#id0)}
   ]]>
  </style>
  <linearGradient id="id0" gradientUnits="userSpaceOnUse" x1="0" y1="0.74" x2="1.37" y2="0.74">
   <stop offset="0" style="stop-opacity:1; stop-color:#1BDB2B"/>
   <stop offset="1" style="stop-opacity:1; stop-color:#68CBE3"/>
  </linearGradient>
 </defs>
 <g id="Camada_x0020_1">
  <metadata id="CorelCorpID_0Corel-Layer"/>
  <path class="fil0" d="M0.98 0.08l-0 0.06 0 0.06c0,0.01 0,0.03 -0,0.03 -0,0 -0.03,0 -0.03,0l-0.03 0.01c-0.01,0 -0.02,0.01 -0.03,0.01l-0.03 0.01c-0.02,0.01 -0.04,0.01 -0.06,0.02 -0.01,0 -0.01,0 -0.01,0.01 -0.01,0 -0.01,0 -0.01,0.01l-0.01 0c-0,0 -0.01,0 -0.01,0 -0.03,0.02 -0.05,0.03 -0.07,0.05 -0,0 -0.02,0.02 -0.03,0.02 -0,0 -0,0.01 -0.01,0.01 -0,0.01 -0.01,0.01 -0.01,0.01 -0,0 -0.01,0.01 -0.01,0.01 -0.01,0.01 -0.02,0.02 -0.02,0.02 -0,0.01 -0,0.01 -0.01,0.01 -0,0.01 -0.01,0.01 -0.01,0.01l-0.03 0.04c-0,0 -0,0 -0.01,0.01 -0,0.01 -0,0.01 -0.01,0.01l-0.02 0.04 -0.02 0.06c-0,0.01 -0.01,0.02 -0.01,0.03 -0,0.01 -0.01,0.03 -0.01,0.03 -0,0.01 -0,0.01 -0,0.01l-0.01 0.04c-0,0 -0,0 -0,0 -0,0 -0,0 -0,0 -0,0 -0,0 -0,0 0,0.01 -0,0.01 -0,0.01 -0,0 -0,0.01 -0,0.02 -0,0.01 -0,0.02 -0,0.03 -0,0.02 -0,0.04 -0,0.06 0,0.04 -0.01,0.08 -0.02,0.12 -0,0.01 -0.01,0.02 -0.01,0.03 -0,0.01 -0.01,0.02 -0.01,0.03 -0,0 -0.01,0.01 -0.01,0.02 -0,0.01 -0.01,0.01 -0.01,0.02 -0.02,0.04 -0.04,0.06 -0.07,0.09l-0.06 0.05c-0.01,0 -0.01,0.01 -0.01,0.01 -0.01,0 -0.01,0.01 -0.02,0.01 -0.01,0 -0.03,0.02 -0.03,0.02 -0.01,0 -0.01,0.01 -0.02,0.01 -0.01,0 -0.01,0 -0.02,0.01 -0,0 -0.01,0 -0.01,0 -0,0 -0.01,0 -0.01,0 -0.01,0 -0.02,0.01 -0.03,0.01 -0.01,0 -0.02,0 -0.03,0.01 -0.01,0 -0.02,0 -0.03,0 -0.01,0 -0.02,0 -0.03,0 -0.01,0 -0.02,0 -0.03,0l0 0.03 0 0.06 -0 0.06c0,0 0.01,0 0.01,0 0,-0 0.01,-0 0.01,0 0.01,-0 0.02,-0 0.03,-0 0,-0 0.03,-0 0.04,-0 0.02,-0 0.05,-0.01 0.07,-0.02 0.01,-0 0.03,-0.01 0.03,-0.01 0.01,-0 0.05,-0.02 0.06,-0.02 0,-0 0,-0 0.01,-0l0.05 -0.03 0.03 -0.02c0.03,-0.02 0.05,-0.04 0.08,-0.07l0.04 -0.04c0,-0 0.01,-0.01 0.01,-0.01l0.04 -0.06 0.03 -0.06c0,-0.01 0,-0.01 0.01,-0.01l0.02 -0.05c0,-0.01 0,-0.01 0,-0.01 0,-0.01 0,-0.01 0,-0.01 0,-0.01 0.01,-0.03 0.01,-0.03 0,-0.01 0,-0.02 0,-0.03 0,-0.01 0,-0.02 0,-0.03 0,-0 0,-0.01 0,-0.02 0,-0.02 0,-0.05 0,-0.06 0,-0.01 0.01,-0.07 0.01,-0.08 0,-0 0,-0 0,-0.01 0,-0 0,-0 0,-0l0 -0c0,-0 0,-0 0,-0 0,-0.01 0.01,-0.05 0.02,-0.06 0,-0 0,-0 0,-0 0,-0.01 0,-0.01 0.01,-0.02 0,-0.01 0,-0.01 0.01,-0.01 0,-0.01 0.01,-0.02 0.01,-0.03 0,-0 0.01,-0.01 0.01,-0.01 0,-0.01 0.03,-0.04 0.03,-0.04 0,-0.01 0,-0 0.01,-0.01 0,-0 0,-0 0.01,-0.01 0.01,-0.01 0.01,-0.01 0.01,-0.02 0.01,-0.01 0.02,-0.02 0.03,-0.03 0,-0.01 0.02,-0.02 0.03,-0.03 0,-0 0.01,-0.01 0.01,-0.01 0,-0 0.01,-0.01 0.01,-0.01 0.01,-0 0.02,-0.01 0.03,-0.01 0,-0 0,-0 0.01,-0 0,-0 0.01,-0.01 0.01,-0.01 0,-0 0.01,-0 0.01,-0.01 0.01,-0 0.02,-0.01 0.03,-0.01 0,-0 0.01,-0 0.01,-0.01l0.05 -0.01c0.01,-0 0.01,-0 0.02,-0 0,-0 0.01,-0 0.02,-0l-0 0.05 0 0.06 0 0.04c0.01,-0 0.02,-0.01 0.02,-0.01 0,-0 0.01,-0.01 0.01,-0.01l0.1 -0.06c0,-0 0.01,-0.01 0.01,-0.01 0,-0 0.01,-0.01 0.01,-0.01 0,-0 0.02,-0.01 0.03,-0.02l0.01 -0.01c0,-0 0.01,-0.01 0.01,-0.01l0.03 -0.02c0,-0 0.01,-0.01 0.02,-0.01 0,-0 0.02,-0.01 0.02,-0.01 0,-0 0.01,-0 0.01,-0.01 0,-0 0.01,-0 0.01,-0.01l0.06 -0.03c0.01,-0 0.02,-0.01 0.02,-0.01 -0,-0 -0.02,-0.01 -0.02,-0.01 -0.01,-0 -0.02,-0.01 -0.03,-0.02 -0.01,-0.01 -0.02,-0.01 -0.03,-0.02 -0,-0 -0,-0 -0,-0l-0.03 -0.02c-0,-0 -0.01,-0.01 -0.01,-0.01 -0,-0 -0.01,-0.01 -0.01,-0.01 -0,-0 -0.01,-0 -0.01,-0.01 -0,-0 -0.01,-0 -0.01,-0.01 -0.01,-0 -0.02,-0.01 -0.02,-0.01 -0,-0 -0,-0 -0.01,-0 -0,-0 -0,-0 -0,-0 -0,-0 -0,-0 -0,-0 -0.01,-0.01 -0.02,-0.01 -0.03,-0.02 -0.01,-0 -0.01,-0.01 -0.01,-0.01l-0.07 -0.04c-0.01,-0 -0.02,-0.01 -0.03,-0.02 -0.01,-0.01 -0.02,-0.01 -0.03,-0.02 -0,-0 -0.01,-0.01 -0.01,-0.01l-0.01 -0c-0,0 -0,-0 -0,0z"/>
  <path class="fil1" d="M0.64 0.83c0,0.01 -0,0.01 -0,0.02 -0,0 0,0.01 0,0.01 0,0.01 -0,0.02 -0,0.03 0,0.01 -0.01,0.05 -0.01,0.06 -0,0.01 -0,0.01 -0,0.02 -0,0 -0,0.01 -0,0.01 -0,0.01 -0,0.02 -0.01,0.03 -0,0.01 -0,0 0,0.01 0,0 0.03,0.02 0.03,0.03 0,0 0,0 0.01,0.01 0.02,0.01 0.03,0.02 0.05,0.04 0.01,0 0.01,0.01 0.02,0.01 0.01,0 0.01,0.01 0.02,0.01 0,0 0.01,0 0.01,0.01 0,0 0.01,0 0.01,0.01 0,0 0.01,0.01 0.02,0.01 0.01,0 0.02,0.01 0.03,0.01 0.01,0 0.01,0 0.01,0.01 0,0 0.01,0 0.01,0.01 0.01,0 0.02,0.01 0.03,0.01 0.02,0.01 0.04,0.01 0.06,0.02 0.01,0 0.03,0 0.03,0.01 0.01,0 0.01,0 0.02,0 0.01,0 0.01,-0 0.02,0.01 0,0.01 -0,0.03 -0,0.04l-0 0.06 0 0.05c0.01,-0 0.02,-0.01 0.02,-0.01l0.12 -0.07c0,-0 0.01,-0 0.01,-0.01 0,-0 0.01,-0 0.01,-0.01l0.02 -0.01c0.01,-0 0.01,-0.01 0.01,-0.01 0,-0 0,-0 0,-0l0.04 -0.02c0,-0 0.01,-0.01 0.02,-0.01 0,-0 0.01,-0.01 0.01,-0.01 0,-0 0.01,-0.01 0.01,-0.01l0.09 -0.05c0,-0 0.01,-0 0.01,-0.01 0,-0 0,-0 0.01,-0.01 -0,-0 -0.01,-0 -0.01,-0.01 -0,-0 -0.01,-0 -0.01,-0.01 -0.01,-0 -0.02,-0.01 -0.03,-0.02l-0.06 -0.03c-0.01,-0 -0.01,-0.01 -0.01,-0.01 -0.01,-0 -0.01,-0.01 -0.01,-0.01l-0.1 -0.06c-0,-0 -0.01,-0.01 -0.01,-0.01 -0,-0 -0.04,-0.02 -0.04,-0.02 -0,-0 -0.01,-0 -0.01,-0l-0.01 -0.01c-0.01,-0 -0.02,-0.01 -0.03,-0.02 -0.01,-0.01 -0.02,-0.01 -0.03,-0.02 -0,-0 -0.02,-0.01 -0.02,-0.01l-0 0.05 -0 0.06 0 0.03c-0,-0 -0.01,-0 -0.02,-0 -0.01,-0 -0.01,-0 -0.02,-0 -0.01,-0 -0.02,-0 -0.03,-0.01 -0.01,-0 -0.02,-0.01 -0.03,-0.01 -0,-0 -0.01,-0 -0.02,-0.01 -0.01,-0 -0.01,-0 -0.02,-0.01 -0.01,-0 -0.02,-0.01 -0.02,-0.01 -0.01,-0 -0.07,-0.04 -0.09,-0.06 -0,-0 -0.01,-0.01 -0.01,-0.01l-0.07 -0.08c-0,-0 -0.01,-0.01 -0.01,-0.01l-0 -0c-0,-0 -0.01,-0.01 -0.01,-0.01l-0.01 -0.01c-0,-0 0,-0 -0,-0l-0 0.03z"/>
  <path class="fil1" d="M0 0.02l-0 0.06 -0 0.06 0 0.01c0.01,0 0.02,0 0.03,0 0.01,-0 0.05,0 0.06,0.01 0.01,0 0.05,0.01 0.06,0.02 0,0 0,0 0,0 0.01,0 0.02,0.01 0.03,0.01 0.01,0 0.01,0 0.01,0.01 0,0 0.01,0 0.01,0.01 0,0 0,-0 0,0 0.01,0.01 0.04,0.02 0.05,0.03l0 0c0.01,0.01 0.02,0.01 0.03,0.02 0,0 0,0 0.01,0.01 0,0 0,0 0.01,0.01 0,0 0.01,0.01 0.01,0.01 0,0 0.03,0.03 0.03,0.03 0.01,0.01 0.01,0.01 0.01,0.02 0,0.01 0.01,0.01 0.01,0.02 0,0 0.01,0.02 0.01,0.02 0,0.01 0,0.01 0.01,0.01l0.01 0.03c0,0.01 0,0.01 0.01,0.01l0.01 0.01c0.01,0.02 0.02,0.05 0.02,0.07 0,0.01 0,0.02 0.01,0.03 -0,0.01 0,0.02 0,0.03l0 0c0,-0.01 0,-0.01 0.01,-0.01l0.01 -0.01c0,-0.01 0.01,-0.02 0.01,-0.03 0,-0 0,-0.01 0.01,-0.01 0,-0 0,-0.01 0.01,-0.01 0,-0.01 0,-0 0,-0.01 0,-0.01 0.01,-0.01 0.01,-0.01 0,-0.01 0.01,-0.01 0.01,-0.01l0.05 -0.06c0,-0.01 -0,-0.01 -0.01,-0.03l-0 -0.01 -0.02 -0.05 -0.03 -0.05c-0,-0 -0,-0 -0,-0 -0,-0.01 -0.01,-0.01 -0.01,-0.02 -0,-0 -0.01,-0.01 -0.01,-0.01 -0,-0 -0.02,-0.02 -0.02,-0.03l-0.01 -0.01c-0.01,-0 -0.02,-0.02 -0.02,-0.02 -0,-0 -0.01,-0.01 -0.01,-0.01 -0.01,-0.01 -0.01,-0 -0.01,-0.01 -0,-0 -0.01,-0 -0.01,-0.01 -0,-0 -0.01,-0.01 -0.01,-0.01 -0.01,-0.01 -0.04,-0.03 -0.04,-0.03 -0,-0 -0.02,-0.01 -0.02,-0.01l-0.04 -0.02c-0,-0 -0.01,-0 -0.01,-0.01 -0.02,-0.01 -0.08,-0.03 -0.1,-0.03l-0.06 -0.01c-0,-0 -0,-0 -0,-0 -0.01,0 -0.02,-0 -0.03,-0 -0.01,-0 -0.02,-0 -0.03,-0l-0.03 0 0 0.02z"/>
 </g>
</svg>
